<?xml version="1.0" encoding="utf-8"?>
<!-- Generator: Adobe Illustrator 27.5.0, SVG Export Plug-In . SVG Version: 6.00 Build 0)  -->
<svg version="1.1" id="Layer_1" xmlns="http://www.w3.org/2000/svg" xmlns:xlink="http://www.w3.org/1999/xlink" x="0px" y="0px"
	 viewBox="0 0 9000 4000" style="enable-background:new 0 0 9000 4000;" xml:space="preserve">
<rect style="fill-rule:evenodd;clip-rule:evenodd;fill:#FCFCFC;" width="9000" height="4000"/>
<g>
	<defs>
		<path id="SVGID_1_" d="M0,1537.89v14.719c204.4,566.293,841.882,1819.447,2385.253,1376.947
			c2120.842-608.07,2276.668,18.716,2425.796,618.616c39.913,160.548,79.474,319.081,155.605,451.827h6.012
			c-77.094-132.765-116.766-291.885-156.821-453.01c-149.733-602.343-306.194-1231.671-2431.943-622.191
			C832.465,3369.608,198.739,2096.363,0,1537.89 M0,1502.826v14.259c214.974,578.349,856.494,1784.313,2374.972,1348.948
			c2120.843-608.068,2276.665,18.718,2425.796,618.616c46.495,187.046,92.444,371.427,196.444,515.351h6.5
			c-105.449-143.742-151.482-328.812-198.147-516.534c-149.733-602.343-306.196-1231.671-2431.945-622.191
			C848.038,3298.675,209.813,2074.753,0,1502.826z M0,1466.991v13.809c224.727,587.974,869.668,1750.348,2364.691,1321.71
			c2120.84-608.068,2276.666,18.718,2425.796,618.616c53.655,215.856,106.487,428.223,248.795,578.874h7.578
			c-144.607-150.151-197.698-363.315-251.576-580.057c-149.735-602.343-306.196-1231.668-2431.945-622.191
			C862.038,3228.193,220.009,2049.666,0,1466.991z M0,1430.29v13.589c233.827,595.622,881.691,1717.351,2354.408,1295.107
			c2120.843-608.067,2276.666,18.718,2425.796,618.617c61.717,248.274,122.303,491.955,319.226,642.397h8.958
			c-200.584-149.35-261.384-394.162-323.387-643.58c-149.734-602.343-306.194-1231.668-2431.943-622.191
			C874.412,3158.169,229.343,2021.394,0,1430.29z M0,1392.84v13.369c242.237,601.51,892.446,1685.468,2344.128,1269.254
			c2120.843-608.067,2276.665,18.718,2425.796,618.617c71.387,287.173,141.317,568.171,422.354,705.92h12.816
			c-288.063-135.293-358.515-418.025-430.375-707.103c-149.736-602.343-306.196-1231.668-2431.945-622.191
			C885.538,3088.511,237.968,1990.531,0,1392.84z M0,1354.868v12.945c250.035,605.956,902.117,1654.623,2333.845,1244.13
			c2120.842-608.07,2276.667,18.716,2425.796,618.614c85.394,343.508,168.589,678.24,613.658,769.443h28.597
			c-466.276-82.833-550.832-422.134-637.459-770.624c-149.733-602.343-306.194-1231.671-2431.943-622.191
			C895.833,3019.088,246.098,1957.65,0,1354.868z M9000,1583.222v-5.441c-4075.734,1848.758-4253.454,1136.411-4441.203,381.137
			c-149.733-602.343-306.187-1231.668-2431.936-622.191C977.494,1666.261,335.404,1074.422,0,525.235v9.561
			c337.32,548.607,980.484,1135.748,2128.211,806.689C4249.054,733.417,4404.872,1360.196,4554,1960.101
			C4742.458,2718.223,4920.854,3433.253,9000,1583.222z M9000,1651.391v-5.439
			c-4065.688,1842.857-4243.321,1131.126-4430.913,376.49c-149.736-602.343-306.196-1231.671-2431.945-622.191
			C983.332,1731.057,337.215,1111.583,0,542.568v9.933c339.184,568.332,986.411,1182.828,2138.494,852.508
			c2120.84-608.068,2276.665,18.718,2425.796,618.617C4752.583,2781.102,4930.908,3495.522,9000,1651.391z M9000,1787.736v-5.439
			c-4045.637,1831.085-4223.077,1120.545-4410.352,367.19c-149.734-602.342-306.194-1231.671-2431.943-622.191
			C980.076,1864.933,331.27,1212.586,0,634.37v10.021c333.336,577.737,983.293,1224.767,2159.056,887.661
			c2120.843-608.067,2276.668,18.718,2425.796,618.616C4772.822,2906.867,4950.951,3620.092,9000,1787.736z M9000,1855.907v-5.441
			c-4035.627,1825.218-4212.958,1115.263-4400.069,362.543c-149.735-602.343-306.196-1231.669-2431.945-622.191
			C978.086,1931.974,328.058,1262.403,0,679.845v10.021c330.158,582.187,981.302,1246.331,2169.339,905.709
			c2120.842-608.067,2276.666,18.718,2425.796,618.616C4782.946,2969.746,4960.954,3682.386,9000,1855.907z M9000,1924.075v-5.438
			C4974.355,3738,4797.168,3028.61,4610.212,2276.532c-149.734-602.343-306.194-1231.668-2431.943-622.191
			C975.844,1999.09,324.685,1311.718,0,725.001v10.333c326.888,586.373,979.315,1267.908,2179.62,923.765
			c2120.843-608.068,2276.666,18.718,2425.796,618.616C4793.067,3032.625,4970.937,3744.699,9000,1924.075z M9000,1992.246v-5.441
			c-4015.668,1813.514-4192.713,1104.691-4379.505,353.25c-149.736-602.343-306.196-1231.669-2431.945-622.191
			C973.211,2066.318,321.104,1360.384,0,769.682v10.34c323.353,590.482,976.683,1290.441,2189.903,942.6
			c2120.84-608.068,2276.666,18.718,2425.796,618.616C4803.192,3095.506,4980.899,3807.021,9000,1992.246z M9000,2060.417v-5.441
			c-4005.725,1807.676-4182.586,1099.399-4369.224,348.603c-149.733-602.343-306.196-1231.671-2431.945-622.191
			C970.561,2133.544,317.426,1408.718,0,814.345v10.366c319.714,594.277,974.05,1312.981,2200.183,961.435
			c2120.843-608.067,2276.665,18.718,2425.796,618.617C4813.312,3158.392,4990.85,3869.354,9000,2060.417z M9000,2128.585v-5.438
			c-3995.788,1801.846-4172.468,1094.115-4358.943,343.955c-149.733-602.343-306.194-1231.671-2431.943-622.191
			C967.232,2200.967,313.448,1456.111,0,858.219v10.68c315.86,597.858,970.99,1336.143,2210.467,980.769
			c2120.84-608.07,2276.665,18.716,2425.796,618.617C4823.437,3221.271,5000.773,3931.694,9000,2128.585z M9000,2196.756v-5.441
			C5014.13,3987.346,4837.659,3280.14,4651.34,2530.623c-149.736-602.34-306.197-1231.669-2431.945-622.191
			C963.905,2268.395,309.367,1503.124,0,902.096v10.684c311.823,601.159,967.661,1359.685,2220.747,1000.409
			c2120.843-608.067,2276.666,18.718,2425.796,618.616C4833.557,3284.15,5010.691,3994.046,9000,2196.756z M9000,2264.924v-5.438
			c-3975.965,1790.226-4152.223,1083.54-4338.38,334.66c-149.733-602.343-306.194-1231.669-2431.943-622.191
			C959.987,2335.986,305.006,1549.236,0,945.335v11.028c307.599,604.131,964.054,1383.607,2231.028,1020.349
			c2120.843-608.067,2276.668,18.718,2425.796,618.617C4843.682,3347.029,5020.596,4056.413,9000,2264.924z M9000,2333.094v-5.441
			c-3966.074,1784.437-4142.098,1078.251-4328.097,330.015c-149.735-602.343-306.196-1231.669-2431.945-622.191
			C955.892,2403.636,300.469,1594.771,0,988.393v11.028c303.108,606.788,959.959,1408.193,2241.311,1040.815
			c2120.84-608.068,2276.666,18.718,2425.796,618.616C4853.802,3409.915,5030.469,4118.792,9000,2333.094z M9000,2401.272v-5.448
			C5043.785,4174.477,4868.029,3468.79,4682.184,2721.192c-149.733-602.343-306.196-1231.668-2431.943-622.191
			C951.258,2471.43,295.661,1639.381,0,1030.91v11.386c298.46,609.037,955.676,1433.014,2251.592,1061.463
			c2120.842-608.068,2276.666,18.718,2425.796,618.616C4863.927,3472.793,5040.341,4181.183,9000,2401.272z M9000,2469.44v-5.445
			c-3946.363,1772.879-4121.854,1067.674-4307.533,320.72c-149.736-602.343-306.196-1231.671-2431.945-622.191
			C946.324,2539.319,290.624,1683.219,0,1073.115v11.386c293.469,610.876,950.738,1458.7,2261.875,1082.781
			c2120.84-608.07,2276.666,18.718,2425.795,618.616C4874.047,3535.675,5050.187,4243.583,9000,2469.44z M9000,2537.597v-5.427
			c-3936.522,1767.122-4111.726,1062.385-4297.252,316.068c-149.733-602.343-306.196-1231.671-2431.945-622.191
			C940.812,2607.366,285.282,1726.027,0,1114.795v11.744c288.31,612.215,945.609,1484.603,2272.156,1104.267
			c2120.843-608.07,2276.665,18.716,2425.796,618.616C4884.165,3598.554,5060.059,4305.948,9000,2537.597z M9000,2605.701v-5.427
			C5073.591,4361.477,4898.385,3657.423,4713.029,2911.76c-149.733-602.343-306.194-1231.668-2431.943-622.191
			C934.952,2675.523,279.685,1767.92,0,1156.136v11.75c282.773,613.034,939.748,1511.406,2282.436,1126.44
			c2120.843-608.068,2276.668,18.718,2425.796,618.616C4894.286,3661.412,5070.179,4368.125,9000,2605.701z M9000,2673.808v-5.427
			c-3916.303,1755.287-4091.495,1051.902-4276.688,306.902c-149.735-602.343-306.196-1231.668-2431.945-622.191
			C928.349,2743.882,273.699,1808.534,0,1196.846v12.133c277,613.229,933.581,1538.548,2292.719,1148.87
			c2120.842-608.068,2276.665,18.718,2425.796,618.616C4904.403,3724.28,5080.284,4430.317,9000,2673.808z M9000,2741.912v-5.427
			c-3906.224,1749.378-4081.375,1046.663-4266.408,302.321c-149.733-602.343-306.196-1231.668-2431.942-622.191
			C921.459,2812.33,267.481,1848.173,0,1237.304v12.14c270.833,612.722,926.691,1566.531,2303,1171.928
			c2120.843-608.068,2276.665,18.718,2425.796,618.616C4914.523,3787.14,5090.365,4492.52,9000,2741.912z M9000,2810.016v-5.427
			c-3896.156,1743.493-4071.256,1041.42-4256.125,297.74c-149.735-602.343-306.196-1231.668-2431.945-622.191
			C913.503,2881.078,260.726,1886.103,0,1276.923v12.537c264.321,611.422,919.231,1595.128,2313.283,1195.436
			c2120.84-608.068,2276.666,18.718,2425.796,618.616C4924.637,3849.999,5100.425,4554.724,9000,2810.016z M9000,2878.12v-5.427
			c-3886.103,1737.61-4061.143,1036.181-4245.844,293.159c-149.733-602.343-306.196-1231.671-2431.945-622.191
			C905.139,2949.95,253.669,1922.782,0,1316.235v12.778c257.459,609.232,911.19,1624.349,2323.564,1219.407
			c2120.842-608.07,2276.666,18.718,2425.796,618.616C4934.755,3912.859,5110.472,4616.945,9000,2878.12z M9000,2946.231v-5.427
			C7481.416,3619.278,6530.686,3924.518,5925.164,4000h36.838C6569.784,3916.883,7512.722,3610.591,9000,2946.231z M9000,3014.338
			v-5.427C7758.579,3563.101,6897.72,3867.164,6294.98,4000h22.616C6919.687,3864.571,7774.75,3561.216,9000,3014.338z
			 M9000,3082.442v-5.427C7932.042,3553.391,7146.274,3844.28,6564.636,4000h18.452
			C7163.204,3843.155,7943.637,3553.561,9000,3082.442z M9000,3150.546v-5.427C8068.006,3560.515,7351.492,3834.277,6798.301,4000
			h16.802C7366.237,3833.83,8077.695,3561.539,9000,3150.546z M9000,3218.65v-5.427
			C8183.501,3576.846,7532.572,3831.64,7012.443,4000h15.577C7545.765,3831.666,8191.776,3578.517,9000,3218.65z M9000,3286.757
			v-5.427c-715.241,318.263-1303.018,552.76-1786.947,718.67h15.163C7709.363,3834.454,8292.468,3601.537,9000,3286.757z M0,588.824
			c334.376,573.628,982.004,1209.085,2147.422,874.95c2125.749-609.48,2282.211,19.848,2431.945,622.191
			c187.429,753.999,364.987,1465.131,4420.632-371.838v5.434c-4059.057,1838.236-4237.296,1124.42-4425.429,367.587
			c-149.13-599.901-304.954-1226.686-2425.796-618.617C984.989,1802.204,336.346,1171.681,0,598.539V588.824z"/>
	</defs>
	<clipPath id="SVGID_00000101065980289856554220000006558602167147347595_">
		<use xlink:href="#SVGID_1_"  style="overflow:visible;"/>
	</clipPath>
	
		<linearGradient id="SVGID_00000075158520920785238990000008632491241817794699_" gradientUnits="userSpaceOnUse" x1="9021.5645" y1="2571.0898" x2="-0.036" y2="2571.0898">
		<stop  offset="0" style="stop-color:#FC67FA"/>
		<stop  offset="0.47" style="stop-color:#FFD4F7"/>
		<stop  offset="1" style="stop-color:#39D5FF"/>
	</linearGradient>
	
		<rect y="525.235" style="clip-path:url(#SVGID_00000101065980289856554220000006558602167147347595_);fill:url(#SVGID_00000075158520920785238990000008632491241817794699_);" width="9000" height="4091.71"/>
</g>
</svg>
