<svg version="1.2" xmlns="http://www.w3.org/2000/svg" viewBox="0 0 3750 1500" width="3750" height="1500">
    <defs>
        <clipPath clipPathUnits="userSpaceOnUse" id="cp1">
            <path d="m3750 1500h-3750v-1500h3750z"/>
        </clipPath>
    </defs>
    <style>.a{fill:#fff}.b{fill:#d0d2d3}</style>
    <path class="a" d="m3750 1500h-3750v-1500h3750z"/>
    <g clip-path="url(#cp1)">
        <path class="b"
              d="m3916 0.6c-610.5-107.4-1231.2-212.8-1831.4-314.6-646-109.6-1313.9-223-1970.8-339.2l0.5-3c656.9 116.2 1324.9 229.6 1970.8 339.2 600.2 101.9 1220.9 207.2 1831.4 314.6z"/>
        <path class="b"
              d="m3927.8 30.5c-614.2-173.7-1238.7-235-1842.7-294.3-325-32-661.1-65-991.7-115.1-370.7-56.2-695.2-128.5-991.8-221l0.9-2.9c660.9 206.1 1333 272.1 1982.9 336 302.1 29.6 614.4 60.3 921.6 104.7 344.5 49.7 646 111.7 921.6 189.7z"/>
        <path class="b"
              d="m3939.6 60.2c-617.9-237.2-1246.2-256-1853.9-274.2-327.1-9.8-665.3-19.9-998-64-179.1-23.7-342.4-55.1-499.1-95.9-175.9-45.8-339.2-102.3-499.1-172.7l1.2-2.7c664.9 292.5 1341.1 312.7 1995.1 332.3 303.9 9.1 618.2 18.5 927.3 55.1 166.5 19.7 318.2 45.5 463.8 78.9 163.5 37.4 315.2 83.4 463.8 140.4z"/>
        <path class="b"
              d="m3951.5 90c-621.7-298.3-1253.9-276.1-1865.3-254.5-329.1 11.6-669.4 23.6-1004.2-14.5-180.3-20.6-344.6-53.6-502.3-100.9-177-53.2-341.4-122.9-502.3-213.3l1.5-2.6c506.6 284.3 1019.7 339.6 1524.7 339.6 161.9 0 322.8-5.7 482.5-11.3 305.8-10.8 622.1-21.9 933.2 7.2 167.5 15.6 320.2 41.4 466.7 78.7 164.5 41.8 317.2 97.1 466.8 168.9z"/>
        <path class="b"
              d="m3963.4 119.6c-625.5-356.8-1261.5-294.8-1876.7-234.9-331.1 32.2-673.6 65.6-1010.5 33.2-181.3-17.4-346.7-51.9-505.4-105.5-178.2-60.1-343.5-142.6-505.5-252.1l1.7-2.5c434.1 293.5 873 369.9 1307.5 369.9 239.2 0 476.9-23.1 712-46 307.7-30 625.9-61 939-39.2 168.5 11.7 322.1 37.4 469.6 78.4 165.6 46.1 319.2 110.2 469.8 196.1z"/>
        <path class="b"
              d="m3975.2 149.2c-629.1-412.7-1269.1-312.5-1887.9-215.7-333.3 52.2-677.8 106.1-1016.8 79.4-182.5-14.4-348.9-50.3-508.6-109.8-179.3-66.8-345.7-161.4-508.6-289.2l1.8-2.4c677.1 531 1365.8 423.3 2031.7 319 309.6-48.4 629.8-98.5 944.8-83.8 169.6 7.9 324.2 33.4 472.6 78 166.6 50 321.2 122.6 472.7 222z"/>
        <path class="b"
              d="m3987.1 178.7c-332.6-244.9-668.4-323.3-1002.4-323.3-301.5 0-601.5 63.8-896.9 126.6-167.6 35.7-340.9 72.5-511.4 97.1-191.3 27.5-358.6 36.3-511.6 26.8-183.7-11.4-351.1-48.6-511.8-113.8-87.1-35.3-173.2-79.5-255.9-131.5-86.8-54.6-172.9-119.5-255.9-193.1l2-2.2c681.2 603.6 1374 456.3 2044 313.8 311.5-66.3 633.7-134.8 950.6-127 170.7 4.2 326.2 29.5 475.6 77.5 167.6 53.8 323.1 134.5 475.5 246.6z"/>
        <path class="b"
              d="m3999.1 208.1c-319.7-259.4-642.2-345.2-963.3-345.2-318.5 0-635.6 84.3-947.5 167.3-168.6 44.8-343 91.2-514.5 123.4-192.4 36.2-360.8 50.4-514.8 43.3-184.8-8.5-353.2-46.9-514.9-117.4-87.6-38.2-174.2-86.6-257.5-144-87.3-60.2-173.9-132.3-257.4-214.2l2.1-2.2c368.3 361.6 740 475.3 1109.7 475.3 318.1 0 634.7-84.2 946.5-167.1 311.5-82.9 633.6-168.5 950.5-168.5 2 0 4 0 6 0 171.7 0.6 328.2 25.7 478.5 76.8 81.4 27.7 161.9 63.7 239.2 106.9 81.2 45.4 161.6 100.3 239.2 163.2z"/>
        <path class="b"
              d="m1099.3 286.6c-15.5 0-30.8-0.3-46-0.7-185.9-5.7-355.4-45.2-518.1-120.7-88.2-40.9-175.3-93.3-259-155.8-87.9-65.5-175-144.3-259-234.3l2.2-2.1c359.5 385.1 722.3 509.1 1083.2 509.1 331.2 0 660.9-104.3 985.3-206.9 157.6-49.9 320.7-101.5 481-140.2 179.9-43.5 337.3-65.8 481.2-68.2 172.8-2.9 330.3 22 481.5 76.1 81.9 29.2 162.9 67.8 240.7 114.6 81.6 49 162.6 108.8 240.7 177.7l-2 2.2c-640.6-564.9-1292.1-358.7-1922.2-159.4-169.6 53.7-345.1 109.2-517.6 148.8-174.6 40.1-329.6 59.8-471.9 59.8z"/>
        <path class="b"
              d="m1068.9 373.1q-10.7 0-21.4-0.2c-187-2.9-357.5-43.4-521.2-123.6-88.7-43.5-176.4-99.6-260.6-166.9-88.3-70.6-176-155.9-260.5-253.4l2.3-2c353.2 407.9 709.5 541.4 1064.3 541.4 341.7 0 681.8-123.9 1016.5-245.7 158.6-57.7 322.6-117.4 483.9-162.9 180.9-51.1 339.3-78.4 484.1-83.7 173.8-6.3 332.3 18.3 484.4 75.2 82.4 30.8 163.9 71.8 242.1 121.9 82.2 52.5 163.6 116.9 242.2 191.3l-2.1 2.2c-304-288-610.6-387.1-916.1-387.1-342 0-682.7 124.1-1017.5 245.9-170.7 62.2-347.1 126.4-520.7 173.1-185.9 50.1-349.6 74.5-499.7 74.5z"/>
        <path class="b"
              d="m1043.5 457.9q-0.8 0-1.7 0c-188.2-0.2-359.7-41.5-524.4-126.2-89.2-45.9-177.4-105.6-262.1-177.4-88.9-75.3-177.1-166.6-262.1-271.4l2.3-1.9c348.6 429.6 700.2 572.1 1050.4 572.1 350.5 0 699.5-142.8 1042.8-283.2 159.5-65.2 324.5-132.7 486.7-184.7 182.1-58.3 341.4-90.5 487.1-98.5 174.9-9.5 334.2 14.7 487.3 74.1 82.9 32.2 164.8 75.5 243.6 128.8 82.6 55.8 164.6 124.6 243.6 204.2l-2.2 2.1c-299.1-301.5-600.6-406.6-901.2-406.6-350.9 0-700.4 143-1043.8 283.4-171.7 70.2-349.2 142.8-523.8 196.3-195.3 59.8-366.2 88.9-522.5 88.9z"/>
        <path class="b"
              d="m1021.1 541.1c-183.5 0-351.3-42.2-512.6-128.6-89.7-48.2-178.4-111.1-263.7-187.2-89.4-79.8-178.1-176.8-263.6-288.3l2.4-1.9c314.8 410.5 659.1 607.7 1052.4 602.9 350.9-4.4 707.9-165.4 1053.1-321.2 160.4-72.4 326.4-147.2 489.6-205.4 183.2-65.3 343.4-102.2 490-112.8 175.9-12.7 336.2 11.2 490.2 73 83.4 33.4 165.8 78.9 245.1 135.1 83.1 58.9 165.5 131.7 245 216.3l-2.2 2.1c-652-694.1-1315.2-394.9-1956.5-105.5-172.7 77.9-351.3 158.5-527 218.4-197.1 67.3-369.5 101-527.2 103q-7.5 0.1-15 0.1z"/>
        <path class="b"
              d="m1001.3 622.4c-179.2 0-343.5-42.9-501.7-130.8-90.2-50.2-179.5-116.3-265.2-196.4-89.9-84-179.2-186.3-265.2-304.1l2.5-1.8c316.6 433.8 662.8 639.8 1058.5 629.7 353-9 712-185.2 1059.2-355.6 161.5-79.2 328.4-161.1 492.6-225.2 184.2-71.9 345.4-113.3 492.8-126.4 177-15.7 338.3 7.7 493.2 71.7 83.9 34.6 166.8 82.1 246.5 141 83.6 61.8 166.5 138.4 246.4 227.6l-2.2 2c-655.8-731.9-1322.9-404.6-1967.9-88-173.7 85.2-353.4 173.4-530.1 239.6-198.2 74.2-371.7 112.3-530.4 116.3q-14.6 0.4-29 0.4z"/>
        <path class="b"
              d="m983.3 701.9c-175.5 0-337-43.7-492.5-132.9-90.8-52.1-180.6-121-266.9-204.8-90.4-87.9-180.1-195.2-266.6-318.9l2.4-1.8c308 440.6 643.8 655.3 1025.4 655.3 13.1 0 26.2-0.2 39.4-0.7 355-13.6 716.1-204.2 1065.3-388.5 162.4-85.6 330.3-174.2 495.5-244 185.3-78.2 347.4-123.7 495.7-139.3 178-18.7 340.3 4.3 496.1 70.3 84.4 35.7 167.8 85 247.9 146.5 84.1 64.4 167.5 144.6 247.9 238.1l-2.2 2c-296-344.3-619.6-492.7-989.4-453.9-329.9 34.6-665.5 211.7-990.1 383-174.7 92.2-355.4 187.6-533.1 259.6-199.4 80.8-373.9 123.1-533.5 129.2q-20.8 0.8-41.3 0.8z"/>
        <path class="b"
              d="m968 779.4c-74.7 0-147.7-8.4-217.7-25-91.7-21.8-182.1-58.7-268.4-109.6-91.4-53.9-181.6-125.4-268.4-212.6-91-91.5-181.2-203.4-268.2-332.7l2.5-1.6c320.3 475.8 670.6 697.4 1070.9 677.2 357-17.9 720.3-222.1 1071.6-419.6 163.3-91.8 332.1-186.7 498.3-261.7 186.3-84.2 349.4-133.8 498.6-151.7 179.1-21.5 342.3 0.9 499 68.7 84.8 36.7 168.8 87.7 249.4 151.5 84.6 66.9 168.4 150.3 249.3 247.9l-2.3 1.9c-297.6-359-623.1-511.7-995.1-467.1-331.8 39.9-669.3 229.7-995.8 413.2-175.7 98.8-357.5 200.9-536.2 278.5-96.3 41.8-184 73.4-268.3 96.5-94.6 25.9-182.4 40.6-268.4 44.9q-25.5 1.3-50.8 1.3z"/>
        <path class="b"
              d="m952.8 855.1c-71.9 0-142.2-8.1-209.8-24.1-92.3-21.9-183.1-59.6-270-112.1-91.9-55.4-182.7-129.3-269.9-219.7-91.5-94.8-182.3-211-269.8-345.3l2.5-1.7c306.4 470.3 640.1 699.9 1018.2 699.9 19.5 0 39.1-0.6 58.9-1.9 359.1-22.2 724.5-239.2 1077.8-449.1 164.2-97.6 334.1-198.5 501.2-278.5 187.4-89.8 351.5-143.3 501.5-163.5 180.1-24.2 344.2-2.2 501.8 67.1 85.4 37.6 169.8 90.1 250.9 156.1 85.1 69.1 169.4 155.5 250.8 256.8l-2.3 1.8c-299.4-372.5-626.8-529.1-1000.8-478.8-333.8 44.9-673.3 246.6-1001.6 441.6-176.8 105-359.6 213.6-539.4 296.5-96.8 44.6-185 78.5-269.8 103.4-95.1 28.1-183.4 44.3-269.9 49.6q-30.3 1.9-60.3 1.9z"/>
        <path class="b"
              d="m938.4 928.8c-69.5 0-137.4-7.7-202.7-23.2-92.8-22-184.2-60.4-271.6-114.2-92.4-56.8-183.7-133-271.4-226.2-92.1-97.8-183.4-217.9-271.4-356.9l2.6-1.6c324 511.7 678.4 746.1 1083.2 716.6 361.2-26.3 728.6-255.4 1084-476.9 165.2-103 336-209.5 504-294.3 188.6-95.2 353.6-152.3 504.5-174.6 181.1-26.8 346.2-5.5 504.7 65.3 85.9 38.3 170.8 92.2 252.4 160.1 85.5 71.2 170.4 160.4 252.2 265l-2.4 1.8c-301.1-384.9-630.3-544.9-1006.5-489.2-335.7 49.6-677.1 262.5-1007.3 468.4-177.8 110.9-361.7 225.5-542.5 313.3-97.4 47.4-186.1 83.3-271.4 110.1-95.7 30-184.5 47.7-271.5 54q-34.7 2.5-68.9 2.5z"/>
        <path class="b"
              d="m923.7 1000.8c-63.5 0-125.2-6.8-186.2-20.5-70.4-15.7-140.1-41.1-207.2-75.4-70.1-35.9-139.8-82.7-207-139.2-70-58.7-139.6-129.7-207-211.2-69.8-84.3-139.4-182.5-207-291.7l2.6-1.6c256.4 414.9 526.7 649.1 826.3 716.2 450.8 100.9 909.6-197.5 1353.3-486.1 166.1-108.1 337.9-219.9 506.9-309.1 189.7-100.1 355.6-160.7 507.3-185.1 182.2-29.3 348.3-8.5 507.7 63.4 86.4 39 171.8 94.1 253.8 163.8 86 73.1 171.4 164.7 253.6 272.3l-2.3 1.9c-302.8-396.2-633.9-559.2-1012.3-498.4-337.6 54.3-681 277.7-1013.1 493.7-222 144.4-451.6 293.8-677.4 391.3-121.7 52.6-232.6 86.3-339 103.2-52.5 8.3-103.3 12.5-153 12.5z"/>
        <path class="b"
              d="m910.7 1070.7c-61 0-120.3-6.5-178.9-19.4-70.9-15.5-141.1-41.1-208.7-75.9-70.7-36.4-140.9-84.1-208.7-141.8-70.5-60.1-140.6-132.9-208.5-216.5-70.4-86.5-140.5-187.4-208.5-299.7l2.5-1.6c258.3 426.6 530.6 666.3 832.5 732.6 453 99.5 913.8-211.6 1359.5-512.5 167.1-112.8 339.9-229.5 509.8-322.9 190.7-104.8 357.6-168.6 510.2-194.9 183.2-31.7 350.3-11.6 510.6 61.4 86.9 39.5 172.7 95.7 255.2 166.9 86.6 74.7 172.4 168.5 255.1 278.9l-2.4 1.8c-304.5-406.3-637.5-571.8-1018-506.1-339.5 58.7-684.8 291.9-1018.8 517.4-223 150.5-453.7 306.2-680.6 408.7-122.1 55.1-233.5 90.9-340.5 109.2-55.6 9.6-109.3 14.4-161.8 14.4z"/>
        <path class="b"
              d="m898.1 1138.6c-58.7 0-116-6.1-172.6-18.4-71.4-15.4-142.1-41-210.1-76.2-71.2-36.9-141.9-85.4-210.1-144.2-71-61.2-141.6-135.5-210-221-70.8-88.5-141.4-191.7-209.9-306.8l2.6-1.5c260 436.9 534.1 681.2 838.1 746.8 455.2 98.2 918.3-224.8 1366.2-537.2 168.1-117.2 341.8-238.3 512.7-335.6 191.8-109.2 359.6-175.9 513.1-204.2 88.3-16.3 174.7-20.1 256.7-11.6 87.8 9.2 174.2 33.1 256.8 70.9 87.3 39.9 173.7 97 256.7 169.6 87 76.1 173.3 171.9 256.5 284.7l-2.4 1.8c-306.3-415.3-641.1-582.9-1023.8-512.4-341.4 62.8-688.7 305-1024.6 539.3-224.1 156.3-455.9 317.9-683.9 424.9-122.8 57.6-234.7 95.2-342.2 115-58.4 10.7-114.7 16.1-169.8 16.1z"/>
        <path class="b"
              d="m885.9 1204.5c-56.9 0-112.3-5.8-167.2-17.4-71.8-15.3-143-41-211.5-76.6-71.6-37.2-142.7-86.3-211.3-146.1-71.4-62.1-142.5-137.8-211.3-224.8-71.2-90.2-142.3-195.4-211.2-312.8l2.6-1.6c261.6 445.8 537.4 694.1 843.3 758.9 457.6 97 923.2-237 1373.4-560 169-121.3 343.8-246.6 515.6-347.5 192.9-113.1 361.7-182.7 516-212.8 88.8-17.3 175.7-21.9 258.2-13.7 88.2 8.8 175.1 32.6 258.2 70.7 87.8 40.3 174.7 98.1 258.1 171.9 87.5 77.3 174.3 174.8 258 289.7l-2.5 1.8c-307.9-423.1-644.7-592.3-1029.4-517.4-343.4 66.8-692.6 317.4-1030.4 559.7-225.3 161.6-458.3 328.8-687.5 440-123.5 59.9-236 99.2-344.1 120.2-60.9 11.9-119.7 17.8-177 17.8z"/>
        <path class="b"
              d="m873.9 1268.5c-55.2 0-109.1-5.6-162.6-16.7-72.2-15.1-143.7-40.9-212.6-76.7-71.9-37.5-143.4-87.2-212.5-147.7-71.8-62.9-143.2-139.7-212.4-228-71.6-91.6-143.1-198.5-212.3-317.8l2.6-1.6c263 453.3 540.3 704.7 847.9 768.8 460.1 96 928.3-248.3 1381.2-581.1 220.4-162.1 448.2-329.6 672.4-444.4 120.8-61.8 230.9-103.8 336.5-128.5 118.7-27.6 228.8-32.8 336.7-15.8 61.9 9.7 123.3 27.2 182.6 51.8 61.7 25.7 123.1 60 182.5 102 125 88.3 247.7 215.5 364.8 378.1l-2.4 1.7c-227.6-315.8-465.7-489.3-727.9-530.6-40.8-6.5-81.8-9.5-122.7-9.5-407.9 0-820.5 303.3-1220.8 597.6-226.6 166.5-460.9 338.8-691.4 453.9-124.1 62-237.3 102.9-345.9 125.1-63.3 12.9-124.2 19.4-183.7 19.4z"/>
        <path class="b"
              d="m862.1 1330.5c-53.8 0-106.4-5.4-158.6-16.1-72.5-14.8-144.4-40.7-213.6-76.7-72.3-37.7-144.2-87.7-213.6-148.9-72.1-63.5-143.9-141.1-213.4-230.6-72-92.6-143.8-200.8-213.4-321.8l2.6-1.5c264.3 459.2 543 713.2 852 776.6 52 10.7 104.1 15.7 156.3 15.7 412.3 0 828.8-312.7 1233.2-616.3 221.8-166.5 451.1-338.6 676.7-456.9 121.5-63.8 232.3-107.2 338.6-132.9 119.5-28.9 230.3-34.8 338.9-18.1 62.1 9.6 123.8 27 183.3 51.7 62 25.8 123.6 60.3 183.3 102.6 125.4 89 248.7 217.5 366.3 381.9l-2.4 1.8c-228.6-319.4-467.7-494.4-731-535-450.4-69.4-908.7 274.6-1351.9 607.3-228 171.1-463.7 348.1-695.6 466.7-124.8 63.9-238.7 106.3-348 129.6-65.4 13.9-128.3 20.9-189.7 20.9z"/>
        <path class="b"
              d="m850.5 1390.5c-52.6 0-104.2-5.2-155.2-15.5-72.9-14.7-145.1-40.5-214.6-76.6-72.7-37.8-144.8-88.2-214.5-149.8-72.4-64-144.6-142.2-214.4-232.4-72.3-93.4-144.4-202.7-214.3-324.8l2.6-1.5c265.5 463.7 545.4 719.5 855.8 782.2 208.9 42.2 437.4-3.7 698.7-140.2 233.1-121.8 470.1-302.9 699.4-478 223.3-170.6 454.1-346.9 681.2-468.5 122.3-65.4 233.8-110.2 340.8-136.9 120.2-30 231.8-36.6 341.1-20.1 62.3 9.4 124.2 26.8 184 51.5 62.1 25.8 124 60.4 183.9 103 125.9 89.5 249.6 218.9 367.7 384.6l-2.5 1.8c-229.4-322.1-469.3-498-733.6-537.9-453.3-68.4-914.6 284-1360.8 624.8-229.3 175.3-466.5 356.5-699.9 478.4-125.6 65.6-240.2 109.4-350.2 133.6-67.3 14.9-132 22.3-195.2 22.3z"/>
        <path class="b"
              d="m839 1448.5c-51.6 0-102.3-5-152.4-14.9-73.2-14.6-145.7-40.3-215.4-76.5-73-37.8-145.4-88.4-215.3-150.2-72.7-64.3-145.1-142.9-215.2-233.7-72.6-93.9-144.9-203.9-215.1-326.8l2.6-1.5c266.5 466.8 547.5 723.8 858.9 785.7 210.3 41.8 440.3-5.8 703.3-145.6 234.6-124.7 473.3-309.7 704.1-488.5 224.7-174.2 457.1-354.3 685.7-478.8 123.1-67 235.3-113 343.1-140.6 121-31 233.3-38.1 343.4-21.9 62.5 9.2 124.6 26.5 184.6 51.2 62.3 25.7 124.4 60.4 184.5 103.1 126.3 89.7 250.4 219.7 368.8 386.2l-2.4 1.8c-230.2-323.8-470.9-500.2-736-539.3-204.7-30.3-428.6 22.8-684.6 162.1-228.4 124.4-460.7 304.4-685.3 478.5-230.9 179-469.6 364-704.5 488.9-126.5 67.2-241.8 112.1-352.5 137.3-69.1 15.7-135.5 23.5-200.3 23.5z"/>
        <path class="b"
              d="m827.6 1504.6c-50.9 0-100.7-4.8-150.2-14.5-73.4-14.4-146.1-40-216.1-76.2-73.1-37.8-145.8-88.4-216-150.4-72.9-64.4-145.6-143.2-215.9-234.2-72.8-94.2-145.4-204.5-215.8-327.8l2.6-1.5c267.5 468.4 549.4 725.9 861.8 787.1 211.7 41.5 443.3-7.7 708-150.4 236.3-127.4 476.5-315.8 708.9-498 226.3-177.4 460.3-360.9 690.4-487.9 124-68.4 237-115.5 345.5-143.9 121.9-31.9 235-39.6 345.7-23.6 62.7 9.1 125 26.2 185.2 50.9 62.5 25.6 124.8 60.2 185 102.9 126.7 89.7 251.1 219.9 369.9 386.8l-2.5 1.7c-230.9-324.4-472.3-500.8-738-539.3-206.1-29.8-431.6 24.9-689.3 167.1-230 126.9-463.9 310.3-690.1 487.7-232.4 182.3-472.8 370.7-709.2 498.2-127.4 68.7-243.5 114.6-354.9 140.6-70.8 16.5-138.8 24.7-205 24.7z"/>
        <path class="b"
              d="m816.2 1558.7c-50.2 0-99.5-4.7-148.4-14.2-73.6-14.2-146.5-39.7-216.7-75.8-73.3-37.6-146.2-88.1-216.6-150.1-73.1-64.3-145.9-143.1-216.5-234.1-72.9-94.2-145.7-204.5-216.4-327.8l2.6-1.5c268.3 468.7 551 725.9 864.2 786.4 213.2 41.2 446.4-9.5 713.1-154.8 237.9-129.6 479.8-321 713.8-506.1 227.9-180.3 463.5-366.7 695.4-496 124.8-69.7 238.6-117.7 347.9-146.8 122.7-32.7 236.6-40.9 348.1-25.1 62.9 8.9 125.3 25.9 185.6 50.4 62.7 25.5 125.1 60 185.5 102.6 126.9 89.4 251.7 219.4 370.7 386.2l-2.4 1.7c-231.5-324.2-473.5-500.2-739.8-537.9-207.5-29.4-434.6 26.7-694.2 171.5-231.6 129.2-467.1 315.5-694.9 495.7-234.1 185.2-476.2 376.7-714.3 506.5-128.3 69.9-245.2 116.8-357.4 143.4-72.3 17.2-141.7 25.8-209.3 25.8z"/>
        <path class="b"
              d="m804.8 1610.8c-49.8 0-98.6-4.6-147-13.8-73.7-14.1-146.8-39.4-217.2-75.3-73.5-37.5-146.5-87.8-217-149.5-73.4-64.1-146.4-142.6-217-233.4-73.2-93.9-146.1-203.9-216.9-326.9l2.6-1.5c269 467.5 552.3 723.8 866.1 783.6 214.7 40.9 449.7-10.9 718.3-158.5 239.6-131.6 483.4-325.6 719.1-513.2 229.5-182.7 466.8-371.6 700.3-502.9 125.8-70.7 240.4-119.5 350.4-149.3 123.6-33.4 238.3-42 350.7-26.4 63 8.7 125.5 25.5 185.9 49.8 62.9 25.3 125.4 59.6 185.9 102 127.2 88.9 252.2 218.3 371.5 384.4l-2.4 1.8c-232.1-323-474.5-498.1-741.3-535.1-209-29-437.8 28.4-699.2 175.4-233.3 131.2-470.5 320-700 502.6-235.8 187.7-479.6 381.8-719.5 513.6-129.2 70.9-246.9 118.7-360 145.9-73.7 17.8-144.4 26.7-213.3 26.7z"/>
        <path class="b"
              d="m793.3 1660.9c-49.4 0-97.9-4.5-145.9-13.5-73.9-13.9-147.1-39-217.6-74.7-73.6-37.2-146.8-87.2-217.4-148.5-73.5-63.7-146.6-141.8-217.4-232-73.3-93.3-146.4-202.7-217.3-324.9l2.6-1.5c269.6 464.9 553.4 719.6 867.6 778.6 216.4 40.7 453.2-12.2 723.8-161.6 241.4-133.4 487-329.5 724.5-519.2 231.2-184.7 470.3-375.7 705.5-508.7 126.7-71.5 242.2-121.1 353-151.3 124.5-34.1 240.1-43.1 353.3-27.7 63.1 8.5 125.7 25.1 186.2 49.2 62.9 25 125.6 59 186.2 101 127.3 88.3 252.5 216.8 372.1 381.8l-2.5 1.7c-232.4-320.9-475.3-494.5-742.4-530.8-210.6-28.6-441 29.9-704.4 178.8-235 132.8-474 323.7-705.1 508.3-237.6 189.8-483.3 386-725 519.5-130.1 71.9-248.8 120.3-362.7 148.1-75.1 18.3-147 27.4-217.1 27.4z"/>
        <path class="b"
              d="m781.7 1709c-49.1 0-97.4-4.4-145.2-13.3-73.9-13.7-147.2-38.5-217.8-73.8-73.7-36.9-147-86.4-217.8-147.2-73.5-63.2-146.7-140.5-217.6-229.9-73.4-92.6-146.5-200.9-217.5-322.1l2.5-1.6c270.1 461 554.2 713.4 868.7 771.7 218.1 40.4 456.7-13.3 729.4-164.3 243.4-134.7 490.9-332.6 730.2-524 233-186.3 473.9-378.9 710.9-513.2 127.6-72.3 244-122.4 355.7-153.1 125.4-34.5 241.8-44 355.9-28.8 63.1 8.4 125.8 24.7 186.4 48.5 63 24.7 125.7 58.4 186.4 99.9 127.5 87.4 252.8 214.5 372.5 377.9l-2.4 1.8c-232.8-317.9-476-489.7-743.3-525.1-212.2-28.2-444.3 31.2-709.7 181.5-236.8 134.2-477.6 326.7-710.5 513-239.4 191.5-487 389.4-730.6 524.2-131.2 72.7-250.8 121.7-365.6 149.9-76.3 18.7-149.4 28-220.6 28z"/>
        <path class="b"
              d="m770 1755.2c-49 0-97.1-4.4-144.8-13.1-74-13.5-147.4-38.1-218-73-73.8-36.4-147.1-85.4-217.9-145.5-73.6-62.4-146.8-138.8-217.8-227.2-73.4-91.4-146.7-198.5-217.7-318.3l2.6-1.5c270.3 455.6 554.7 705.1 869.3 762.6 219.8 40.1 460.4-14.3 735.3-166.4 245.3-135.7 494.8-335 736.1-527.6 234.7-187.5 477.5-381.4 716.3-516.7 128.6-72.9 245.9-123.4 358.4-154.5 126.4-34.9 243.8-44.7 358.7-29.8 63.2 8.2 125.9 24.3 186.6 47.7 63 24.4 125.7 57.6 186.5 98.6 127.5 86.2 253 211.6 372.8 373l-2.4 1.8c-233.1-313.9-476.5-483.4-743.9-518.1-213.8-27.7-447.8 32.4-715.2 183.9-238.6 135.2-481.3 329-716 516.4-241.3 192.8-490.9 392.1-736.5 527.9-132.2 73.2-252.7 122.6-368.5 151.2-77.4 19.1-151.6 28.6-223.9 28.6z"/>
        <path class="b"
              d="m758.1 1799.4c-48.9 0-97-4.3-144.7-12.9-74-13.3-147.4-37.5-218.1-72-73.7-35.9-147-84.2-217.9-143.4-73.6-61.5-146.8-136.8-217.8-223.9-73.4-90.1-146.7-195.6-217.8-313.5l2.6-1.6c270.5 449 554.9 694.8 869.5 751.4 221.7 40 464.2-15 741.4-167.9 247.4-136.5 498.9-336.6 742.2-530.1 236.6-188.3 481.3-383 722-519 129.6-73.2 247.8-124.1 361.2-155.5 127.4-35.2 245.7-45.3 361.5-30.6 63.2 8 126 23.8 186.6 46.8 63.1 24 125.8 56.6 186.6 97 127.6 84.7 253.1 208.2 372.9 367l-2.3 1.8c-233.3-309-476.7-475.7-744.2-509.6-215.5-27.3-451.3 33.4-720.8 185.7-240.5 135.9-485.1 330.5-721.6 518.7-243.4 193.6-495.1 393.9-742.6 530.4-133.4 73.6-254.9 123.3-371.6 152.1-78.6 19.4-153.8 29.1-227.1 29.1z"/>
        <path class="b"
              d="m746 1841.6c-49 0-97.2-4.2-144.9-12.7-74-13.2-147.3-37-218-70.8-73.7-35.4-147-82.8-217.8-141-73.5-60.5-146.8-134.5-217.8-220-73.3-88.4-146.6-192-217.6-307.8l2.5-1.6c270.6 441 554.9 682.4 869.2 738.2 223.6 39.7 468.2-15.6 747.8-169 249.5-136.9 503.2-337.5 748.6-531.5 238.5-188.6 485.1-383.6 727.7-520 130.7-73.5 249.8-124.5 364.2-156.1 128.4-35.5 247.6-45.8 364.4-31.4 128.5 15.9 254 63.3 373.1 140.9 127.6 83.1 253 204.2 372.9 360l-2.4 1.8c-233.4-303.2-476.7-466.7-744-499.7-217.3-26.8-455 34.4-726.7 187.1-242.4 136.3-489 331.2-727.4 519.8-245.4 194.1-499.3 394.8-749 531.8-134.4 73.7-257 123.7-374.7 152.6-79.6 19.6-155.8 29.4-230.1 29.4z"/>
        <path class="b"
              d="m733.6 1881.8c-49.1 0-97.4-4.2-145.3-12.5-73.9-12.9-147.1-36.3-217.7-69.6-73.7-34.6-146.9-81.1-217.7-138.1-73.4-59.2-146.6-131.7-217.5-215.4-73.3-86.6-146.5-187.9-217.5-301.2l2.6-1.6c270.4 431.6 554.5 668.1 868.3 722.9 225.6 39.4 472.3-16 754.4-169.5 251.7-137 507.7-337.7 755.2-531.7 181.2-142.1 368.7-289.1 553-409.9 206.9-135.6 387.9-223.3 553.4-268 95.3-25.7 188.4-38 276.9-36.3 94.7 1.8 187.9 19.5 277 52.6 94.2 35 187.3 88.6 276.8 159.3 93.9 74.1 187 169.5 276.8 283.5l-2.4 1.9c-330.3-419.8-691.5-569.7-1104.3-458.1-368.3 99.5-743 393.3-1105.4 677.3-247.6 194.1-503.6 394.9-755.5 532-135.7 73.8-259.4 123.8-378.1 152.9-80.6 19.7-157.8 29.5-233 29.5z"/>
        <path class="b"
              d="m721 1920.1c-49.4 0-97.9-4.1-146-12.4-73.8-12.7-146.9-35.6-217.4-68.1-73.5-33.9-146.6-79.3-217.3-135-73.3-57.8-146.4-128.5-217.2-210.2-73.2-84.4-146.2-183.2-217.1-293.6l2.5-1.6c270.2 420.9 553.8 651.7 867 705.5 227.6 39.2 476.6-16.3 761.3-169.6 254-136.8 512.3-337.1 762-530.7 182.2-141.3 370.6-287.4 556-407.7 207.9-135.1 389.8-222.7 556.2-267.9 95.8-26 189.4-38.7 278.3-37.6 95.2 1.1 188.9 17.9 278.4 49.9 94.7 33.9 188.4 86.1 278.3 155.1 94.4 72.4 188 165.8 278.2 277.6l-2.3 1.9c-332.1-411.5-695.2-556.7-1110.1-444-370.3 100.6-746.9 392.6-1111.1 675-249.9 193.8-508.3 394.1-762.5 531-136.9 73.7-261.7 123.7-381.5 152.8-81.6 19.7-159.7 29.6-235.7 29.6z"/>
        <path class="b"
              d="m707.9 1956.4c-49.6 0-98.4-4.1-146.8-12.3-73.5-12.4-146.5-34.7-216.9-66.4-73.3-33-146.3-77.3-216.8-131.5-73.2-56.2-146.1-124.9-216.7-204.3-73.1-82-145.9-178-216.7-285.3l2.5-1.6c269.8 409 552.8 633.4 865.1 686.2 229.8 38.8 481.1-16.6 768.5-169.3 256.3-136.3 517.1-335.7 769.2-528.6 183.1-140.1 372.5-284.9 558.8-404.5 209-134.1 391.9-221.5 559.1-267.1 96.3-26.2 190.3-39.3 279.8-38.9 95.6 0.4 189.8 16.2 279.8 47.1 95.2 32.7 189.3 83.3 279.8 150.5 94.8 70.4 188.9 161.5 279.6 270.8l-2.3 1.9c-333.8-402-698.8-542.2-1115.9-428.5-372.2 101.4-750.8 391-1116.9 671.1-252.2 193-513 392.5-769.6 528.8-138.2 73.5-264.2 123.3-385.1 152.3-82.6 19.8-161.5 29.6-238.5 29.6z"/>
        <path class="b"
              d="m694.4 1990.8c-50 0-99.1-4.1-147.8-12.2-73.3-12.1-146-33.9-216.2-64.6-73.1-32.1-145.9-75-216.2-127.5-72.9-54.5-145.7-121.1-216.1-198-72.8-79.4-145.5-172.2-216-275.9l2.4-1.7c269.3 395.8 551.4 613.3 862.6 664.8 517.3 85.7 1043.6-310.6 1552.6-693.7 184.1-138.6 374.5-281.9 561.7-400.4 210.1-132.9 393.9-219.8 562-265.7 96.8-26.4 191.4-39.9 281.2-40.2q1.3 0 2.7 0c95.2 0 188.9 14.9 278.6 44.2 95.7 31.3 190.3 80.2 281.2 145.3 95.3 68.4 189.8 156.9 281 263.3l-2.3 2c-335.4-391.5-702.3-526.1-1121.6-411.7-374.1 102.1-754.7 388.5-1122.7 665.6-254.6 191.7-518 389.9-777 525.5-139.6 73-266.7 122.5-388.8 151.3-83.6 19.7-163.5 29.6-241.3 29.6z"/>
        <path class="b"
              d="m680.3 2023.1c-50.2 0-99.7-3.9-148.7-11.9-73.1-11.8-145.6-32.9-215.5-62.7-72.8-31-145.3-72.5-215.4-123.2-72.7-52.6-145.1-116.8-215.3-190.9-72.6-76.5-145-165.9-215.3-265.8l2.5-1.8c268.5 381.5 549.6 591.3 859.4 641.5 48.6 7.8 97.4 11.6 146.1 11.6 475.2 0 955.8-355.1 1422.1-699.6 185-136.7 376.3-278.1 564.6-395.2 211.1-131.4 395.9-217.6 564.8-263.7 97.2-26.5 192.3-40.4 282.6-41.4 96.6-1 191.8 12.8 282.7 41 96.2 29.8 191.3 76.9 282.7 139.8 95.8 66 190.8 151.8 282.5 255l-2.3 2c-337.2-379.7-706-508.4-1127.4-393.5-376 102.5-758.5 385.1-1128.4 658.4-257.2 190-523.2 386.6-784.9 521-140.9 72.3-269.3 121.4-392.6 150.1-84.6 19.6-165.4 29.3-244.2 29.3z"/>
        <path class="b"
              d="m664.5 2053.4c-30.2 0-60.1-1.3-89.5-4.1-104.5-9.8-207.4-37.3-305.7-81.8-104-47.1-206.9-115-305.7-201.6-103.6-90.9-206.3-205.8-305.4-341.3l2.4-1.7c307.3 420.3 639 627.1 1008.4 627.1 69.1 0 139.4-7.3 211.1-21.7 406.8-81.5 820.5-380.7 1220.5-670 186-134.5 378.3-273.6 567.5-389 212.2-129.6 397.9-215 567.7-261.1 203.9-55.5 389.7-57.1 568.2-4.9 96.7 28.3 192.2 73.3 284.1 133.8 96.3 63.4 191.8 146.2 283.9 245.8l-2.2 2.1c-338.9-366.8-709.6-489.1-1133.2-373.9-378 102.7-762.4 380.7-1134.2 649.6-200.1 144.7-407.1 294.4-610.7 415-109.6 65-209.5 116.5-305.4 157.7-107.7 46.2-207.6 78.3-305.6 97.9-73.5 14.7-145.9 22.1-216.2 22.1z"/>
        <path class="b"
              d="m649 2082q-41.1 0-81.3-3.3c-105-8.6-208.4-34.4-307.2-76.8-104.6-44.8-207.9-109.7-307.2-192.9-104.2-87.2-207.5-197.7-307.1-328.2l2.4-1.8c366.6 480.5 767.6 669.1 1225.8 576.7 408.8-82.5 824.6-375.9 1226.7-659.8 186.9-131.9 380.2-268.3 570.3-381.8 213.3-127.4 400-211.7 570.6-257.9 204.9-55.4 391.7-58.5 571-9.4 97.2 26.5 193.3 69.4 285.6 127.3 96.8 60.7 192.8 140.1 285.3 235.9l-2.1 2.1c-340.7-352.7-713.2-468.2-1139-353-379.9 102.8-766.3 375.5-1140 639.3-201.1 142-409.1 288.8-613.7 407.4-110.2 63.9-210.6 114.7-307 155.4-108.3 45.7-208.7 77.6-307.1 97.4-76.9 15.6-152.6 23.4-226 23.4z"/>
        <path class="b"
              d="m632.6 2108.6q-36.5 0-72.2-2.5c-105.5-7.4-209.4-31.4-308.8-71.4-105.1-42.3-208.9-104.1-308.7-183.5-104.7-83.3-208.5-189-308.6-314.2l2.3-1.8c368.5 460.6 771.5 639.2 1232 545.9 410.9-83.3 828.8-370.3 1232.9-647.8 187.9-129.1 382.2-262.5 573.2-373.7 214.4-124.9 402-207.9 573.5-254 206-55.3 393.7-60 573.9-14.2 97.6 24.8 194.2 65.3 286.9 120.4 97.3 57.7 193.8 133.5 286.9 225.2l-2.1 2.2c-342.4-337.5-716.9-445.7-1144.8-330.7-381.8 102.6-770.2 369.3-1145.8 627.2-202.1 138.9-411.2 282.4-616.8 398.8-110.7 62.6-211.7 112.6-308.5 152.7-108.8 45.1-209.8 76.8-308.7 96.8-80.6 16.3-159.9 24.6-236.6 24.6z"/>
        <path class="b"
              d="m615.2 2133.3q-31.3 0-62.1-1.8c-106-6.1-210.5-28.2-310.3-65.7-105.6-39.7-210-98-310.3-173.4-105.2-79.1-209.6-179.7-310.2-299.1l2.3-1.9c370.4 439.2 775.4 607.1 1238.3 513.1 412.9-83.9 832.9-363.7 1239.1-634.2 188.8-125.8 384-255.9 576.1-364.6 215.4-122 403.9-203.6 576.3-249.5 207-55.1 395.6-61.3 576.7-19 98.2 22.9 195.2 60.9 288.4 113 97.8 54.6 194.8 126.5 288.3 213.8l-2 2.2c-344.1-321.2-720.5-421.6-1150.6-307.1-383.8 102.2-774.1 362.2-1151.5 613.7-203.2 135.3-413.3 275.2-620 389-111.3 61.2-212.7 110.2-310.1 149.7-109.3 44.3-210.8 75.7-310.1 95.9-84.8 17.2-168 25.9-248.3 25.9z"/>
        <path class="b"
              d="m596.5 2156.1q-25.6 0-50.6-1.1c-106.7-4.8-211.6-24.9-311.9-59.7-106.2-36.9-211.1-91.7-311.9-162.8-105.7-74.5-210.6-169.7-311.7-282.8l2.2-2c372.2 416.3 779.3 572.7 1244.5 478.2 415-84.4 837.1-356.2 1245.4-619 189.7-122.1 385.9-248.5 578.9-354.4 216.5-118.8 406-198.7 579.2-244.3 208-54.8 397.6-62.6 579.6-24 98.6 20.9 196.1 56.3 289.8 105.1 98.3 51.2 195.8 119 289.8 201.5l-2 2.3c-345.9-303.6-724.1-395.9-1156.4-282-385.7 101.6-778 354.1-1157.3 598.3-204.2 131.5-415.4 267.4-623.1 378.3-233 124.3-436.9 203.2-623.3 241.1-89.3 18.1-176.9 27.3-261.2 27.3z"/>
        <path class="b"
              d="m576.1 2177q-18.9 0-37.5-0.5c-107.2-3.4-212.6-21.4-313.5-53.4-106.6-33.9-212.1-84.9-313.4-151.4-106.2-69.7-211.6-159.1-313.2-265.5l2.1-2.1c374.1 391.8 783.2 536.1 1250.7 441.2 417.1-84.7 841.4-347.7 1251.6-602 190.7-118.3 387.9-240.5 581.9-343.3 217.5-115.3 407.9-193.3 582-238.6 209-54.3 399.6-63.8 582.5-29.1 99.1 18.8 197.1 51.4 291.2 96.8 98.8 47.7 196.7 111.1 291.2 188.5l-1.9 2.3c-347.6-284.9-727.7-368.5-1162.2-255.6-387.6 100.8-781.9 345.2-1163.1 581.5-205.2 127.2-417.4 258.8-626.1 366.4-234.2 120.7-439.1 197.9-626.5 236-94.4 19.2-187 28.8-275.8 28.8z"/>
        <path class="b"
              d="m554 2196.3c-116.4 0-228.3-15.7-337.7-47.1-107.2-30.8-213.1-77.6-314.9-139.3-106.8-64.6-212.7-147.8-314.9-247.2l2.1-2.1c376 365.7 787.1 497.3 1257 402.1 419.1-84.9 845.5-338.4 1257.8-583.4 191.6-113.9 389.8-231.7 584.7-331.1 218.7-111.5 410-187.5 584.9-232.2 210.1-53.8 401.5-65.1 585.3-34.4 99.6 16.6 198.1 46.3 292.7 88.1 99.2 43.8 197.7 102.6 292.6 174.6l-1.8 2.4c-261.1-198.2-523.8-277-786.5-277-520.6 0-1041.2 309.5-1550.4 612.1-206.2 122.6-419.5 249.4-629.2 353.5-235.3 116.8-441.3 192.2-629.5 230.3-101.1 20.5-198.1 30.7-292.2 30.7z"/>
        <path class="b"
              d="m529.2 2213.7c-110.7 0-217.3-13.3-321.7-40-107.7-27.5-214.2-70.1-316.5-126.6-107.3-59.3-213.8-135.9-316.4-227.8l2-2.2c293.7 262.9 608.9 392.8 956.5 392.8 99.5 0 201.6-10.6 306.7-31.8 421.3-85 849.7-328.1 1264-563.2 192.6-109.2 391.8-222.2 587.6-317.9 219.8-107.3 412-181 587.9-225.2 211-53.1 403.4-66.1 588.1-39.7 100 14.3 199 40.8 294.1 78.8 99.7 39.9 198.6 93.7 294 160.1l-1.7 2.4c-782.6-544.3-1578.6-92.6-2348.5 344.1-207.2 117.6-421.5 239.2-632.3 339.6-236.5 112.5-443.4 185.8-632.6 223.9-107.9 21.8-211.2 32.7-311.2 32.7z"/>
        <path class="b"
              d="m501.1 2229.3c-103.8 0-204.1-10.9-302.4-32.7-108.2-24.1-215.2-62.2-318-113.3-107.9-53.6-214.9-123.3-318-207.3l1.9-2.3c310.7 252.9 623.4 350.5 935.8 350.5 538.8 0 1077-290 1603.9-573.9 193.5-104.3 393.7-212.1 590.5-303.8 220.8-102.8 414-174 590.7-217.6 212-52.3 405.3-67.1 590.9-45.1 100.6 11.9 200 35.1 295.5 69.1 100.2 35.6 199.7 84.3 295.5 144.6l-1.6 2.6c-250.7-157.9-503-221.6-755.2-221.6-538.8 0-1077.9 290.5-1604.9 574.4-208.2 112.2-423.6 228.3-635.4 324.5-237.6 107.9-445.5 178.9-635.7 217.1-115.8 23.2-226.5 34.8-333.5 34.8z"/>
        <path class="b"
              d="m468.8 2243.4c-95.4 0-188-8.6-278.9-25.7-108.8-20.4-216.3-53.8-319.6-99.2-108.4-47.6-215.9-110.1-319.5-185.7l1.8-2.4c303.8 221.6 609.5 308 915.1 308 549.9 0 1099.3-279.5 1637.1-553.1 194.5-98.9 395.5-201.2 593.3-288.6 221.9-98.1 416.1-166.6 593.6-209.4 213.1-51.4 407.3-68 593.7-50.7 101.1 9.4 201 29.2 297 59 100.7 31.2 200.6 74.4 296.9 128.4l-1.4 2.6c-790.4-443.1-1594.3-34.1-2371.8 361.4-209.2 106.4-425.6 216.5-638.5 308.3-238.8 103-447.7 171.6-638.7 209.6-125.5 25-244.9 37.5-360.1 37.5z"/>
        <path class="b"
              d="m430.8 2255.9c-85.2 0-168.2-6.2-249.8-18.6-109.2-16.7-217.2-45.1-321-84.5-108.9-41.4-216.9-96.3-321.1-163.2l1.6-2.5c295 189.4 591.9 264.1 888.6 264.1 562.9 0 1125.6-268.5 1676.2-531.2 195.4-93.3 397.4-189.7 596.2-272.5 222.9-92.9 418-158.5 596.4-200.5 214.1-50.4 409.2-68.9 596.6-56.4 101.5 6.7 201.9 23 298.4 48.4 101.1 26.6 201.5 64.1 298.3 111.4l-1.3 2.7c-234.6-114.8-470.4-162.1-706.4-162.1-562.8 0-1126.4 269-1677 531.7-210.2 100.3-427.7 204.1-641.6 291.2-239.9 97.7-449.8 163.6-641.8 201.5-137.2 27.1-267.1 40.5-392.3 40.5z"/>
        <path class="b"
              d="m384.7 2267.3c-72.2 0-142.8-4.1-212.5-12.2-109.7-12.7-218.3-36-322.6-69.1-109.4-34.8-217.9-81.7-322.6-139.5l1.5-2.6c283.5 156.4 568.8 218.9 853.9 218.9 578.7 0 1157.4-257.1 1723.3-508.4 392.8-174.5 798.9-354.9 1198.4-446.4 215.1-49.3 411.2-69.7 599.4-62.3 102 4.1 202.9 16.6 299.8 37.4 101.7 21.7 202.5 53.3 299.8 93.7l-1.2 2.8c-222.8-92.6-446.8-131.3-670.9-131.3-578.5 0-1158.2 257.5-1724.1 508.8-211.3 93.8-429.8 190.9-644.7 273-241 92-452 155.1-644.9 192.8-151.9 29.6-294.9 44.4-432.6 44.4z"/>
        <path class="b"
              d="m326.9 2277.7c-55.2 0-109.6-2.1-163.5-6.3-110.3-8.7-219.3-26.6-324.1-53.2-109.9-28-219-66.5-324.1-114.7l1.2-2.7c268.2 122.7 537.9 172.6 807.6 172.6 598.3 0 1197.1-245.3 1782.2-485 394.6-161.7 802.7-328.9 1204.1-418.2 216.1-48 413.2-70.3 602.3-68.1 102.5 1.2 203.8 9.8 301.2 25.8 102.1 16.7 203.5 42 301.2 75.2l-1 2.8c-207.2-70.3-415.4-100.1-623.8-100.1-598 0-1197.8 245.7-1782.9 485.4-212.3 86.9-431.8 176.9-647.8 253.7-242.2 86.1-454.1 146.1-647.9 183.4-171.1 33-331.1 49.4-484.7 49.4z"/>
        <path class="b"
              d="m251 2287.8c-32.4 0-64.5-0.6-96.4-1.9-110.8-4.4-220.4-16.6-325.6-36.5-110.5-20.8-220-50.7-325.7-88.8l1-2.8c246.9 89 495 126 743.2 126 624 0 1248.9-233.6 1859.2-461.7 396.5-148.2 806.5-301.5 1209.8-388.3 217.2-46.7 415.1-71 605.1-74.2 213.3-3.6 411.3 19.1 605.2 69.7l-0.7 2.9c-806-210-1625.7 96.4-2418.4 392.7-426.7 159.5-867.9 324.4-1301.9 406.9-197.2 37.6-379.7 56-554.8 56z"/>
        <path class="b"
              d="m144.3 2298.8c-230.1 0-443.6-26.5-652.8-81.1l0.7-2.9c871.5 227.3 1757.9-70.9 2615-359.3 398.4-134.1 810.3-272.7 1215.5-356.8 218.2-45.3 417-71.6 608-80.5 214.3-9.9 413.1 2.3 608 37.2l-0.6 2.9c-809.8-145.2-1633.5 132-2430 400-428.7 144.3-872 293.4-1308.1 375.1-234.7 43.9-448.7 65.3-654.2 65.4q-0.7 0-1.5 0z"/>
        <path class="b"
              d="m-18.2 2313.3c-173.8 0-339.3-12.7-502.1-38.4l0.4-3c166.2 26.3 332.9 38 499.8 38 712.9 0 1429.9-213.6 2127.8-421.4 400.2-119.2 814.1-242.5 1221.2-323.7 219.2-43.7 419-72.1 610.8-86.7 215.3-16.5 415.1-15.4 610.8 3.4l-0.3 2.9c-104.5-10-209.5-14.6-314.4-14.6-711.7 0-1429.8 213.8-2127.3 421.6-430.7 128.3-876.1 260.9-1314.2 341.5-235.9 43.3-450.9 68.6-657.3 77.2-52.5 2.1-104.2 3.2-155.2 3.2z"/>
        <path class="b"
              d="m-299.1 2338.2c-78.6 0-156.1-2-233-6l0.1-3c880 45.8 1774.8-184.9 2640.2-408 402.1-103.6 817.9-210.8 1227-288.9 220.2-42 420.9-72.5 613.5-93.2 216.3-23.2 417-33.5 613.7-31.6l-0.1 3c-817.7-8-1649.2 206.3-2453.4 413.6-432.8 111.6-880.2 226.9-1320.4 306.3-237 42.7-452.9 71.9-660.3 89.2-148.1 12.4-289.5 18.6-427.3 18.6z"/>
        <path class="b"
              d="m-543.9 2389.5l-0.2-3c884.2-50.2 1783.3-244.7 2652.8-432.9 404-87.4 821.8-177.8 1232.7-252.6 460.8-83.8 864.1-138.6 1232.8-167.6l0.2 3c-821.7 64.5-1657.1 245.3-2465.1 420.1-434.8 94.1-884.4 191.4-1326.6 269.5-495.9 87.5-929.9 141-1326.6 163.5z"/>
        <path class="b"
              d="m-555.7 2446.8l-0.5-2.9c888.4-149.6 1791.7-306.5 2665.2-458.2 811.9-141 1651.4-286.8 2477-426.4l0.5 3c-825.6 139.5-1665.1 285.3-2477 426.3-873.5 151.8-1776.8 308.7-2665.2 458.2z"/>
    </g>
</svg>